<?xml version="1.0"?><svg width="645.06787" height="707.35486" xmlns="http://www.w3.org/2000/svg">

 <metadata id="metadata3799">image/svg+xml</metadata>
 <g>
  <title>Layer 1</title>
  <g externalResourcesRequired="false" id="layer1">
   <g id="g3848">
    <path fill="#333333" id="path3812" d="m363.118958,491.133972c0,26.944214 -21.84259,48.786804 -48.786804,48.786804c-26.944214,0 -48.786774,-21.84259 -48.786774,-48.786804c0,-26.944214 21.84256,-48.786804 48.786774,-48.786804c26.944214,0 48.786804,21.84259 48.786804,48.786804z"/>
    <path fill="#333333" d="m324.48761,153.141403c-88.706223,0 -167.248016,33.722977 -215.499985,85.5625l40,61.656265c35.115707,-46.920792 100.545593,-78.468765 175.499985,-78.468765c69.397125,0 130.639801,27.062576 167.21875,68.312515l41.46875,-58.531265c-48.658264,-47.848251 -124.050781,-78.53125 -208.6875,-78.53125z" id="path3814"/>
    <path fill="#333333" d="m317.36261,307.422668c-50.456665,0 -96.517181,18.781128 -131.562485,49.6875l33.78125,52.09375c26.406311,-22.235291 60.515182,-35.65625 97.781235,-35.65625c34.983948,0 67.176849,11.814758 92.84375,31.65625l35.84375,-50.625c-34.676788,-29.419922 -79.598114,-47.15625 -128.6875,-47.15625z" id="path3822"/>
    <path fill="#333333" id="path3824" d="m323.356415,0c-116.584045,0 -221.30764,45.127426 -293.437489,116.812515l37.906254,58.40625c53.30072,-61.704102 147.013916,-102.6875 253.781235,-102.6875c105.946167,0 199.072052,40.339508 252.593781,101.25l41.3125,-58.28125c-72.107056,-70.929108 -176.272888,-115.500015 -292.156281,-115.500015z"/>
   </g>
   <g externalResourcesRequired="false" font-size="134.026474px" font-style="normal" font-weight="normal" fill="#333333" font-family="Arial Black" id="text3854">
    <path fill="black" id="path3870" d="m155.83313,609.845398l28.14032,0l10.143616,53.597473l14.790009,-53.597473l28.07489,0l14.855469,53.597473l10.143616,-53.597473l28.00946,0l-21.138,95.938843l-29.056519,0l-16.818756,-60.403503l-16.753296,60.403503l-29.056519,0l-21.33429,-95.938843"/>
    <path id="path3872" d="m303.406219,609.845398l26.635132,0l0,18.127625l-26.635132,0l0,-18.127625m0,26.438782l26.635132,0l0,69.500061l-26.635132,0l0,-69.500061"/>
    <path id="path3874" d="m348.823425,609.845398l73.295715,0l0,20.614441l-43.519348,0l0,16.753296l37.171448,0l0,19.371033l-37.171448,0l0,39.200073l-29.776367,0l0,-95.938843"/>
    <path id="path3876" d="m437.432739,609.845398l26.635132,0l0,18.127625l-26.635132,0l0,-18.127625m0,26.438782l26.635132,0l0,69.500061l-26.635132,0l0,-69.500061"/>
   </g>
  </g>
 </g>
</svg>